<svg width="350" height="538" viewBox="0 0 350 538" fill="none" xmlns="http://www.w3.org/2000/svg">
<path d="M0 418C0 401.431 10.6841 388 23.8636 388H175V538H23.8636C10.6841 538 0 524.569 0 508V418Z" fill="#FC8181"/>
<path d="M175 388H326.136C339.316 388 350 401.431 350 418V508C350 524.569 339.316 538 326.136 538H175V388Z" fill="#FA4C4C"/>
<path d="M0 23.8636C0 10.6841 10.6841 0 23.8636 0H175V175H0V23.8636Z" fill="#F6E05E"/>
<path d="M0 175H175V350H23.8636C10.6841 350 0 339.316 0 326.136V175Z" fill="#63B3ED"/>
<path d="M175 175H350V326.136C350 339.316 339.316 350 326.136 350H175V175Z" fill="#B794F6"/>
<path d="M175 0H326.136C339.316 0 350 10.6841 350 23.8636V175H175V0Z" fill="#68D391"/>
<ellipse cx="107.07" cy="140.096" rx="25.0701" ry="28.0958" fill="black"/>
<ellipse cx="242.794" cy="140.096" rx="24.2056" ry="28.0958" fill="black"/>
<path d="M124.36 202.771C154.617 234.432 208.215 226.127 223.776 202.771" stroke="black" stroke-width="25" stroke-linecap="round"/>
</svg>
